<?xml version="1.0" encoding="UTF-8"?>
<svg version="1.1" xmlns="http://www.w3.org/2000/svg" width="963" height="1169">
<path d="M0 0 C3.875 1.875 3.875 1.875 5 3 C5.74894531 2.94585937 6.49789062 2.89171875 7.26953125 2.8359375 C12.80759107 3.16869646 16.40530988 8.13845515 20 12 C23.64514152 16.44622653 26.84892605 21.19672704 30 26 C30.70125 27.06476562 31.4025 28.12953125 32.125 29.2265625 C34.16727759 32.44155417 36.09803166 35.70019951 38 39 C38.52255371 39.86818359 38.52255371 39.86818359 39.05566406 40.75390625 C45.5911337 51.72733305 47.78927201 62.4337569 49.55566406 74.99023438 C50.1440812 78.97595225 50.86777043 82.93182028 51.59301758 86.89453125 C53.1290934 95.32003757 54.42350135 103.71805464 55.28173828 112.23925781 C55.77469532 117.11682391 56.40169747 121.95935043 57.10327148 126.8112793 C58.64844622 137.5267095 59.66516216 148.21725513 60.46484375 159.01171875 C60.85182961 164.20611402 61.28889593 169.39418657 61.75390625 174.58203125 C61.82040375 175.32446075 61.88690125 176.06689026 61.95541382 176.83181763 C62.22076896 179.78522631 62.48719421 182.73852995 62.75708008 185.69152832 C62.94538551 187.75382335 63.13100759 189.81634815 63.31640625 191.87890625 C63.47798218 193.65116577 63.47798218 193.65116577 63.64282227 195.45922852 C63.76502038 196.97256883 63.88353868 198.48620739 64 200 C64.08472061 201.06556625 64.16944122 202.13113251 64.25672913 203.22898865 C65.13211946 215.44971757 65.20051029 227.65426703 65.23828125 239.90234375 C65.24235678 241.0400931 65.2464323 242.17784245 65.25063133 243.35006905 C65.27139902 249.40419446 65.28572548 255.45829802 65.29516602 261.51245117 C65.30390883 266.40353303 65.32451357 271.29431984 65.35668945 276.18530273 C65.55962779 307.72620414 64.4963154 338.80372124 61.45077515 370.20243835 C60.85426842 376.41938513 60.42043224 382.64384842 60 388.875 C59.17658905 399.62015759 57.6044887 410.22330415 55.94140625 420.8671875 C55.17120868 425.79856004 54.5084768 430.72964333 53.9375 435.6875 C53.23459798 441.5657514 52.24318704 447.33368902 51.10522461 453.13891602 C50.26528067 457.45536828 49.58366847 461.7669421 49 466.125 C48.19786678 471.97858376 47.06070725 477.69928535 45.77734375 483.46484375 C45.00702546 486.96805003 44.30909603 490.47903116 43.625 494 C41.62801994 504.04730594 39.31822406 514.02268056 37 524 C36.79084961 524.90121582 36.58169922 525.80243164 36.36621094 526.73095703 C33.66396705 538.33284454 30.7929771 549.88009698 27.69897461 561.38378906 C27.17011966 563.36325455 26.64881651 565.3447397 26.13110352 567.32714844 C23.83290448 576.07791683 21.33945385 584.75287337 18.70043945 593.40673828 C18.06311206 595.49799164 17.43070841 597.5906889 16.79882812 599.68359375 C13.05196342 612.04758677 9.09186646 624.33479428 4.5625 636.4375 C3.95180598 638.07421243 3.34112913 639.71093127 2.73046875 641.34765625 C2.43446777 642.13930176 2.1384668 642.93094727 1.83349609 643.74658203 C1.09622726 645.73984252 0.38408801 647.74235868 -0.32421875 649.74609375 C-6.93040825 668.17597376 -15.53087012 685.96004494 -23.9375 703.625 C-24.36119873 704.51711182 -24.78489746 705.40922363 -25.22143555 706.32836914 C-28.27130852 712.67064377 -31.58179799 718.84914887 -35 725 C-35.66 725 -36.32 725 -37 725 C-37.26409668 725.86625 -37.52819336 726.7325 -37.80029297 727.625 C-38.99702368 730.99162705 -40.44866137 733.88690085 -42.1953125 737 C-42.82501953 738.12784912 -43.45472656 739.25569824 -44.10351562 740.41772461 C-44.77716889 741.61191506 -45.45100021 742.80600509 -46.125 744 C-46.81222784 745.2257805 -47.49907555 746.45177419 -48.18554688 747.67797852 C-50.11638354 751.12280976 -52.05685892 754.56209419 -54 758 C-54.45342773 758.8029248 -54.90685547 759.60584961 -55.37402344 760.43310547 C-57.56207855 764.30077638 -59.77375795 768.15420541 -62 772 C-62.88365234 773.53914062 -62.88365234 773.53914062 -63.78515625 775.109375 C-69.97537967 785.83002567 -76.58485499 796.08353861 -84 806 C-84.55300781 806.76054688 -85.10601563 807.52109375 -85.67578125 808.3046875 C-89.00454419 812.76951989 -92.647455 816.73347743 -96.625 820.625 C-103.43225945 826.90587993 -103.43225945 826.90587993 -107.46484375 835.01171875 C-108.23277506 837.86483581 -110.14288592 839.54749551 -112.08203125 841.703125 C-113.99373912 843.99250224 -115.69540342 846.37884794 -117.38793945 848.83300781 C-121.35521045 854.57995258 -125.52656391 859.97605574 -130.25 865.125 C-130.73291504 865.65689941 -131.21583008 866.18879883 -131.71337891 866.73681641 C-134.85384935 870.0835716 -138.18556036 872.48510048 -142 875 C-143.74086762 876.7980058 -143.74086762 876.7980058 -145.0625 878.75 C-145.50722656 879.36359375 -145.95195313 879.9771875 -146.41015625 880.609375 C-147.32318947 881.98228981 -148.21415921 883.37180419 -149.03710938 884.80053711 C-152.15431538 890.1214845 -155.78577207 893.97773001 -160.375 898.0625 C-161.80157596 899.36359011 -163.22599975 900.66704326 -164.6484375 901.97265625 C-165.36999023 902.63410645 -166.09154297 903.29555664 -166.83496094 903.97705078 C-170.31425378 907.22800032 -173.65593403 910.61099602 -177 914 C-181.83741086 918.88335136 -186.73796278 923.57232386 -192 928 C-193.65090883 929.43166814 -195.29662055 930.86934781 -196.9375 932.3125 C-197.68902344 932.96863281 -198.44054687 933.62476563 -199.21484375 934.30078125 C-201.08624197 935.88954848 -201.08624197 935.88954848 -202 938 C-202.5775 938.268125 -203.155 938.53625 -203.75 938.8125 C-206.09505097 940.05016579 -207.50635026 941.54294266 -209.3203125 943.44140625 C-214.04474386 947.82523907 -219.5959267 951.44736933 -225 954.9375 C-228.96496637 957.66341438 -232.59902145 960.74200893 -236.30078125 963.8125 C-238.5282402 965.61767657 -240.7700914 967.30605817 -243.125 968.9375 C-246.03908619 970.68977907 -246.03908619 970.68977907 -247 973 C-248.63588566 974.04959797 -250.30877595 975.04211745 -252 976 C-253.75150167 977.01825467 -255.50152089 978.03906388 -257.25 979.0625 C-258.12140625 979.56910156 -258.9928125 980.07570313 -259.890625 980.59765625 C-262.12155402 981.82873086 -262.12155402 981.82873086 -263 984 C-263.99 984 -264.98 984 -266 984 C-266 984.66 -266 985.32 -266 986 C-267.984375 987.48046875 -267.984375 987.48046875 -270.75 989.1875 C-271.74386719 989.80109375 -272.73773437 990.4146875 -273.76171875 991.046875 C-275.36466797 992.01367188 -275.36466797 992.01367188 -277 993 C-278.09957031 993.66515625 -279.19914063 994.3303125 -280.33203125 995.015625 C-288.71023882 1000 -288.71023882 1000 -291 1000 C-291 1000.66 -291 1001.32 -291 1002 C-293.47702672 1003.06158288 -295.71241217 1003.95474028 -298.3828125 1004.375 C-301.3832063 1005.09151195 -303.19177699 1006.27015563 -305.6875 1008.0625 C-309.8 1011 -309.8 1011 -312 1011 C-312 1011.66 -312 1012.32 -312 1013 C-312.67804687 1013.36351562 -313.35609375 1013.72703125 -314.0546875 1014.1015625 C-319.74820243 1017.17700686 -325.3272194 1020.36024809 -330.80859375 1023.80078125 C-332.89726446 1024.9437793 -334.67389518 1025.54961524 -337 1026 C-337 1026.66 -337 1027.32 -337 1028 C-345.261959 1032.40774487 -345.261959 1032.40774487 -350 1033 C-350 1033.66 -350 1034.32 -350 1035 C-350.64066406 1035.24234375 -351.28132812 1035.4846875 -351.94140625 1035.734375 C-356.55734492 1037.52296524 -360.90665964 1039.3900587 -365.15625 1041.92578125 C-371.19067369 1045.44160014 -377.19679592 1048.37314685 -384 1050 C-384 1049.01 -384 1048.02 -384 1047 C-387.11785113 1047.64644661 -387.11785113 1047.64644661 -388 1050 C-388.66 1050 -389.32 1050 -390 1050 C-390 1050.66 -390 1051.32 -390 1052 C-391.64548828 1052.81404297 -391.64548828 1052.81404297 -393.32421875 1053.64453125 C-394.77869939 1054.3670797 -396.2331235 1055.08974196 -397.6875 1055.8125 C-398.7693457 1056.34713867 -398.7693457 1056.34713867 -399.87304688 1056.89257812 C-402.89067842 1058.39450433 -405.80362838 1059.87411332 -408.64453125 1061.6953125 C-411.45764119 1063.25348616 -413.82069269 1063.64481039 -417 1064.0625 C-422.81945093 1064.84189075 -426.85129264 1065.76061051 -431 1070 C-432.8046875 1070.7734375 -432.8046875 1070.7734375 -434.875 1071.375 C-438.59278104 1072.50658329 -442.18763547 1073.82839136 -445.80078125 1075.2578125 C-452.86572286 1077.99323848 -460.0093466 1080.42641873 -467.20092773 1082.80224609 C-469.30112448 1083.49624104 -471.39968945 1084.19499707 -473.49804688 1084.89453125 C-481.14629737 1087.43713832 -488.81415339 1089.90547785 -496.51481628 1092.28482056 C-499.98297856 1093.3584407 -503.42531059 1094.47957414 -506.8515625 1095.6796875 C-511.602489 1097.28439474 -516.45241587 1098.20797613 -521.375 1099.125 C-523.13312955 1099.45927427 -524.89095703 1099.79514227 -526.6484375 1100.1328125 C-527.41333496 1100.27605957 -528.17823242 1100.41930664 -528.96630859 1100.56689453 C-531.18672026 1101.00019197 -531.18672026 1101.00019197 -534 1102 C-536.3329614 1102.04166002 -538.6670386 1102.04166002 -541 1102 C-544.13140217 1101.72031478 -544.13140217 1101.72031478 -546.71484375 1103.83203125 C-550.19970115 1106.13178851 -553.6159003 1107.45641424 -557.5625 1108.6875 C-558.20896484 1108.89955078 -558.85542969 1109.11160156 -559.52148438 1109.33007812 C-564.59810571 1110.96719813 -569.28396915 1112.14335406 -574.625 1112.125 C-575.38039063 1112.12757812 -576.13578125 1112.13015625 -576.9140625 1112.1328125 C-579 1112 -579 1112 -582 1111 C-582.33 1110.01 -582.66 1109.02 -583 1108 C-583.83023682 1108.17390259 -583.83023682 1108.17390259 -584.67724609 1108.35131836 C-587.24208737 1108.88537116 -589.80850397 1109.41145932 -592.375 1109.9375 C-593.24511719 1110.11990234 -594.11523438 1110.30230469 -595.01171875 1110.49023438 C-600.3205211 1111.57165708 -605.47793134 1112.29326212 -610.89306641 1112.56079102 C-613.43932765 1113.09158174 -614.36253251 1114.02919326 -616 1116 C-614.35 1116.33 -612.7 1116.66 -611 1117 C-611 1117.66 -611 1118.32 -611 1119 C-613.43629884 1119.48603703 -615.87378565 1119.96385629 -618.3125 1120.4375 C-619.31893555 1120.63956055 -619.31893555 1120.63956055 -620.34570312 1120.84570312 C-625.20232869 1121.78054654 -630.0142525 1122.29677588 -634.94067383 1122.70727539 C-640.88002065 1123.27556817 -646.77965523 1124.17314822 -652.6875 1125 C-662.28135595 1126.33189617 -671.77190793 1127.45666624 -681.45703125 1127.7265625 C-682.29621094 1127.81679687 -683.13539063 1127.90703125 -684 1128 C-684.33 1128.66 -684.66 1129.32 -685 1130 C-688.62528568 1130.20140476 -690.86501708 1129.85776765 -694 1128 C-694 1127.34 -694 1126.68 -694 1126 C-694.886875 1126.33 -695.77375 1126.66 -696.6875 1127 C-705.16454852 1129.39754908 -714.2334435 1128.29501076 -722.66015625 1126.2421875 C-725.42521558 1125.9559877 -726.67442787 1126.54987419 -729 1128 C-720.34291147 1129.10630288 -711.69262672 1130.20596198 -703 1131 C-703 1131.66 -703 1132.32 -703 1133 C-702.01 1133 -701.02 1133 -700 1133 C-700 1133.66 -700 1134.32 -700 1135 C-699.34 1135 -698.68 1135 -698 1135 C-698 1136.32 -698 1137.64 -698 1139 C-695.69 1139.33 -693.38 1139.66 -691 1140 C-690.67 1140.99 -690.34 1141.98 -690 1143 C-687.98491642 1143.73323796 -687.98491642 1143.73323796 -686 1144 C-686 1143.34 -686 1142.68 -686 1142 C-682.66173619 1142.51357905 -679.38185612 1143.13462806 -676.09765625 1143.9140625 C-668.94196973 1145.51846345 -661.67129854 1146.45093083 -654.41796875 1147.5 C-642.47680498 1149.27522528 -642.47680498 1149.27522528 -638 1151 C-637.67 1151.99 -637.34 1152.98 -637 1154 C-630.4 1154.33 -623.8 1154.66 -617 1155 C-617 1154.34 -617 1153.68 -617 1153 C-618.32 1153 -619.64 1153 -621 1153 C-621 1152.34 -621 1151.68 -621 1151 C-621.62648438 1150.86722656 -622.25296875 1150.73445313 -622.8984375 1150.59765625 C-623.71570313 1150.42105469 -624.53296875 1150.24445313 -625.375 1150.0625 C-626.59316406 1149.80146484 -626.59316406 1149.80146484 -627.8359375 1149.53515625 C-630 1149 -630 1149 -632 1148 C-632 1147.01 -632 1146.02 -632 1145 C-630.92878906 1145.01160156 -629.85757812 1145.02320313 -628.75390625 1145.03515625 C-627.35677257 1145.04453299 -625.95963701 1145.05363331 -624.5625 1145.0625 C-623.85544922 1145.07087891 -623.14839844 1145.07925781 -622.41992188 1145.08789062 C-620.61306441 1145.09653588 -618.80612397 1145.05220011 -617 1145 C-616.67 1144.67 -616.34 1144.34 -616 1144 C-612.75125556 1143.82439219 -610.12586682 1144.21479172 -607 1145 C-593.09947797 1147.39798804 -579.11174209 1149.52724482 -565 1150 C-565 1150.66 -565 1151.32 -565 1152 C-566.65 1152.33 -568.3 1152.66 -570 1153 C-567.03 1153.33 -564.06 1153.66 -561 1154 C-561 1153.01 -561 1152.02 -561 1151 C-556.06009526 1149.70333109 -551.17162871 1149.87375951 -546.10546875 1149.90234375 C-545.15811356 1149.9037587 -544.21075836 1149.90517365 -543.23469543 1149.90663147 C-540.21893105 1149.91221389 -537.20324182 1149.92476318 -534.1875 1149.9375 C-532.13867295 1149.94251727 -530.08984473 1149.94707978 -528.04101562 1149.95117188 C-523.02731494 1149.96217757 -518.0136702 1149.97943012 -513 1150 C-512.67 1150.66 -512.34 1151.32 -512 1152 C-513.65 1152 -515.3 1152 -517 1152 C-516.814375 1152.804375 -516.62875 1153.60875 -516.4375 1154.4375 C-516.293125 1155.283125 -516.14875 1156.12875 -516 1157 C-517.87824891 1158.87824891 -521.03935276 1158.39102397 -523.5625 1158.5625 C-525.35880859 1158.68818359 -525.35880859 1158.68818359 -527.19140625 1158.81640625 C-528.58166016 1158.90728516 -528.58166016 1158.90728516 -530 1159 C-530 1158.01 -530 1157.02 -530 1156 C-531.32 1156 -532.64 1156 -534 1156 C-533.649375 1156.61875 -533.29875 1157.2375 -532.9375 1157.875 C-532.628125 1158.57625 -532.31875 1159.2775 -532 1160 C-532.33 1160.66 -532.66 1161.32 -533 1162 C-528.05 1162.66 -523.1 1163.32 -518 1164 C-518 1164.99 -518 1165.98 -518 1167 C-572.06343906 1166.21898099 -572.06343906 1166.21898099 -598 1164 C-594.34309779 1164.74134815 -590.68301024 1165.40044019 -587 1166 C-587 1166.66 -587 1167.32 -587 1168 C-594.12649449 1168.1824707 -600.81033136 1168.33723933 -607.71955872 1166.46681213 C-610.11423049 1165.97661673 -612.21418576 1165.92320214 -614.6550293 1165.97631836 C-619.72318341 1166.02692147 -624.7175241 1165.75944976 -629.76953125 1165.37890625 C-630.65356125 1165.31468979 -631.53759125 1165.25047333 -632.44841003 1165.18431091 C-634.29801254 1165.04904396 -636.14748497 1164.91198707 -637.99682617 1164.77319336 C-640.82240179 1164.56175906 -643.64844202 1164.35765172 -646.47460938 1164.15429688 C-648.28128204 1164.02126777 -650.08792387 1163.88781907 -651.89453125 1163.75390625 C-653.15400322 1163.66321617 -653.15400322 1163.66321617 -654.43891907 1163.57069397 C-658.36409145 1163.2719635 -662.15618386 1162.90153988 -666 1162 C-666 1161.01 -666 1160.02 -666 1159 C-663.03 1158.67 -660.06 1158.34 -657 1158 C-658.216875 1157.731875 -659.43375 1157.46375 -660.6875 1157.1875 C-664.24565224 1156.30894389 -666.900501 1154.98023547 -670 1153 C-672.19130534 1152.30420546 -672.19130534 1152.30420546 -674 1152 C-674 1152.99 -674 1153.98 -674 1155 C-672.35 1155.33 -670.7 1155.66 -669 1156 C-669.66 1157.65 -670.32 1159.3 -671 1161 C-678.54976705 1160.64686573 -685.5833715 1159.81038691 -692.87890625 1157.82421875 C-697.47165606 1156.61136492 -702.11970576 1155.69288745 -706.7734375 1154.74609375 C-710 1154 -710 1154 -712.73828125 1153.00390625 C-718.26714323 1151.30220861 -724.01090673 1150.84015342 -729.74023438 1150.14453125 C-731.11598633 1149.96470703 -731.11598633 1149.96470703 -732.51953125 1149.78125 C-733.35589111 1149.67876953 -734.19225098 1149.57628906 -735.05395508 1149.47070312 C-736.01724731 1149.23770508 -736.01724731 1149.23770508 -737 1149 C-737.33 1148.34 -737.66 1147.68 -738 1147 C-739.64363134 1146.27840576 -741.31050386 1145.60648579 -743 1145 C-743 1144.01 -743 1143.02 -743 1142 C-743.91289795 1142.01047363 -744.8257959 1142.02094727 -745.76635742 1142.03173828 C-749.16758775 1142.06591281 -752.56863442 1142.09094384 -755.9699707 1142.10986328 C-757.43940112 1142.11989352 -758.90881171 1142.13352101 -760.37817383 1142.15087891 C-762.49565537 1142.17525898 -764.61287199 1142.18651286 -766.73046875 1142.1953125 C-768.00301514 1142.20578613 -769.27556152 1142.21625977 -770.58666992 1142.22705078 C-773.9000819 1142.00664644 -776.10801667 1141.61227652 -779 1140 C-779.495 1138.515 -779.495 1138.515 -780 1137 C-781.36125 1137.12375 -781.36125 1137.12375 -782.75 1137.25 C-786 1137 -786 1137 -787.6875 1135.125 C-791.41275019 1131.70179712 -796.10509699 1131.64140108 -801 1131 C-801.33 1129.68 -801.66 1128.36 -802 1127 C-802.55123535 1126.9906543 -803.1024707 1126.98130859 -803.67041016 1126.97167969 C-818.12079387 1126.66783736 -831.86917198 1125.00806153 -846 1122 C-846.8461084 1121.82194824 -847.6922168 1121.64389648 -848.56396484 1121.46044922 C-854.73607706 1120.13196147 -854.73607706 1120.13196147 -857 1119 C-857 1121.31 -857 1123.62 -857 1126 C-858.98 1125.67 -860.96 1125.34 -863 1125 C-863.495 1123.515 -863.495 1123.515 -864 1122 C-864.66 1122.99 -865.32 1123.98 -866 1125 C-866.66 1125 -867.32 1125 -868 1125 C-868.33 1123.02 -868.66 1121.04 -869 1119 C-869.99 1118.67 -870.98 1118.34 -872 1118 C-872.33 1118.99 -872.66 1119.98 -873 1121 C-873.66 1121 -874.32 1121 -875 1121 C-874.319375 1121.928125 -873.63875 1122.85625 -872.9375 1123.8125 C-872.298125 1124.864375 -871.65875 1125.91625 -871 1127 C-871.33 1127.99 -871.66 1128.98 -872 1130 C-872.66 1129.34 -873.32 1128.68 -874 1128 C-874.99 1128 -875.98 1128 -877 1128 C-877.6700834 1125.87607494 -878.33596797 1123.75082476 -879 1121.625 C-879.556875 1119.84996094 -879.556875 1119.84996094 -880.125 1118.0390625 C-881 1115 -881 1115 -881 1113 C-886.28 1112.34 -891.56 1111.68 -897 1111 C-897 1110.01 -897 1109.02 -897 1108 C-892.05 1107.67 -887.1 1107.34 -882 1107 C-882.33 1105.68 -882.66 1104.36 -883 1103 C-883.06624507 1101.25113019 -883.08552595 1099.49997252 -883.0625 1097.75 C-883.04896484 1096.41195313 -883.04896484 1096.41195313 -883.03515625 1095.046875 C-883.01775391 1094.03367187 -883.01775391 1094.03367187 -883 1093 C-881.35 1092.34 -879.7 1091.68 -878 1091 C-878 1090.34 -878 1089.68 -878 1089 C-876.54462432 1088.16151196 -875.08559627 1087.32936066 -873.625 1086.5 C-872.40683594 1085.80390625 -872.40683594 1085.80390625 -871.1640625 1085.09375 C-869 1084 -869 1084 -867 1084 C-867 1083.34 -867 1082.68 -867 1082 C-863.25165446 1080.26723134 -859.50101766 1078.53947563 -855.75 1076.8125 C-854.70585938 1076.32974609 -853.66171875 1075.84699219 -852.5859375 1075.34960938 C-845.45354754 1072.06959054 -838.2603233 1068.98469867 -831 1066 C-822.71483702 1062.5487362 -814.72069065 1059.07187238 -807.1015625 1054.28125 C-803.1174152 1051.85225313 -799.09663311 1050.27914297 -794.5625 1049.125 C-791.42332784 1048.13368248 -789.55487954 1047.16493831 -786.875 1045.375 C-783.63438535 1043.21667557 -781.90454945 1042.89154029 -778 1043 C-776.64631404 1041.68733482 -775.31200404 1040.35432675 -774 1039 C-772.68 1039 -771.36 1039 -770 1039 C-769.67 1038.01 -769.34 1037.02 -769 1036 C-767.35 1035.67 -765.7 1035.34 -764 1035 C-764 1034.34 -764 1033.68 -764 1033 C-762.91332031 1032.51080078 -762.91332031 1032.51080078 -761.8046875 1032.01171875 C-760.35449219 1031.35623047 -760.35449219 1031.35623047 -758.875 1030.6875 C-757.86824219 1030.23246094 -756.86148438 1029.77742188 -755.82421875 1029.30859375 C-753.75044699 1028.34771748 -751.70838245 1027.31763601 -749.6875 1026.25 C-746.77577621 1024.89570987 -744.1770549 1024.37822082 -741 1024 C-741 1023.34 -741 1022.68 -741 1022 C-735.03240373 1018.59425061 -728.96838243 1015.45013426 -722.796875 1012.4296875 C-719.97640606 1011.02991705 -719.97640606 1011.02991705 -717.28125 1009.35546875 C-715.12320152 1008.07320364 -713.39980613 1007.59995153 -711 1007 C-710.67 1006.34 -710.34 1005.68 -710 1005 C-708.35 1005 -706.7 1005 -705 1005 C-704.34 1006.32 -703.68 1007.64 -703 1009 C-702.34 1009 -701.68 1009 -701 1009 C-701.33 1007.02 -701.66 1005.04 -702 1003 C-698.38026598 1001.68373308 -695.90432869 1001 -692 1001 C-692 1000.01 -692 999.02 -692 998 C-690.1875 997.375 -690.1875 997.375 -688 997 C-685 999 -685 999 -684 1002 C-684 1001.01 -684 1000.02 -684 999 C-681.03 998.34 -678.06 997.68 -675 997 C-674.67 997.66 -674.34 998.32 -674 999 C-670.56206661 998.81870185 -670.56206661 998.81870185 -667 998 C-665.77472052 996.04978917 -665.77472052 996.04978917 -665 994 C-662.875 993.25 -662.875 993.25 -661 993 C-661 991.35 -661 989.7 -661 988 C-655.58411054 985.77561683 -650.88111236 984.19603708 -645 984 C-643.65210653 984.98028616 -642.31787285 985.97971135 -641 987 C-637.69523952 986.71923208 -637.69523952 986.71923208 -634 986 C-632.39772221 985.90018597 -630.7926763 985.83830669 -629.1875 985.8125 C-628.43855469 985.79832031 -627.68960937 985.78414062 -626.91796875 985.76953125 C-625 986 -625 986 -623 988 C-622.67 987.34 -622.34 986.68 -622 986 C-622.66 986 -623.32 986 -624 986 C-625.625 983.3125 -625.625 983.3125 -627 980 C-626.1875 977.125 -626.1875 977.125 -625 975 C-624.01 975 -623.02 975 -622 975 C-622 975.66 -622 976.32 -622 977 C-619.64828869 976.40138258 -617.3140622 975.73075648 -615 975 C-614.67 974.34 -614.34 973.68 -614 973 C-611.35139573 972.40644386 -608.70802678 972.25790731 -606 972 C-605.8200072 977.21979128 -606.02905192 981.07262981 -608 986 C-607.01 986 -606.02 986 -605 986 C-605 986.99 -605 987.98 -605 989 C-606.43554025 989.50559908 -607.8735202 990.0042749 -609.3125 990.5 C-610.11300781 990.7784375 -610.91351562 991.056875 -611.73828125 991.34375 C-614 992 -614 992 -617 992 C-617 992.66 -617 993.32 -617 994 C-616.34 994 -615.68 994 -615 994 C-615 995.32 -615 996.64 -615 998 C-616.60875 998.1546875 -616.60875 998.1546875 -618.25 998.3125 C-621.8996431 998.68175892 -621.8996431 998.68175892 -623.921875 1000.50390625 C-626.41392712 1002.2979964 -627.962422 1002.44904274 -631 1002.625 C-634.14208903 1002.82617033 -636.95402255 1003.22581407 -640 1004 C-640.99 1004 -641.98 1004 -643 1004 C-643.33 1005.32 -643.66 1006.64 -644 1008 C-646.64 1008 -649.28 1008 -652 1008 C-652.14695312 1009.48113281 -652.14695312 1009.48113281 -652.296875 1010.9921875 C-652.52117187 1012.91417969 -652.52117187 1012.91417969 -652.75 1014.875 C-652.88921875 1016.15117188 -653.0284375 1017.42734375 -653.171875 1018.7421875 C-654 1022 -654 1022 -655.96875 1023.28125 C-656.6390625 1023.5184375 -657.309375 1023.755625 -658 1024 C-659.75322937 1026.53188648 -659.75322937 1026.53188648 -661 1029 C-661.66 1028.67 -662.32 1028.34 -663 1028 C-663 1026.35 -663 1024.7 -663 1023 C-663.99 1024.32 -664.98 1025.64 -666 1027 C-667.32 1026.67 -668.64 1026.34 -670 1026 C-670 1026.66 -670 1027.32 -670 1028 C-670.66 1028 -671.32 1028 -672 1028 C-672.33 1026.35 -672.66 1024.7 -673 1023 C-673.99 1023 -674.98 1023 -676 1023 C-676.37125 1023.804375 -676.37125 1023.804375 -676.75 1024.625 C-678.33469328 1027.63591723 -679.87581317 1030.3295937 -682 1033 C-684.75 1033.375 -684.75 1033.375 -687 1033 C-687.66 1031.68 -688.32 1030.36 -689 1029 C-689.66 1029 -690.32 1029 -691 1029 C-691.33 1030.32 -691.66 1031.64 -692 1033 C-694.33333333 1033 -696.66666667 1033 -699 1033 C-699 1033.66 -699 1034.32 -699 1035 C-698.01 1035 -697.02 1035 -696 1035 C-696 1035.66 -696 1036.32 -696 1037 C-696.66 1037 -697.32 1037 -698 1037 C-698.33 1038.32 -698.66 1039.64 -699 1041 C-699.66 1041 -700.32 1041 -701 1041 C-701.33 1040.34 -701.66 1039.68 -702 1039 C-702.99 1038.67 -703.98 1038.34 -705 1038 C-704.67 1039.32 -704.34 1040.64 -704 1042 C-707.07322544 1042.91058531 -709.80097361 1043.08886184 -713 1043 C-713.1546875 1044.670625 -713.1546875 1044.670625 -713.3125 1046.375 C-713.6528125 1048.169375 -713.6528125 1048.169375 -714 1050 C-714.99 1050.66 -715.98 1051.32 -717 1052 C-717 1052.66 -717 1053.32 -717 1054 C-716.01 1054.66 -715.02 1055.32 -714 1056 C-714 1056.99 -714 1057.98 -714 1059 C-714.5775 1058.814375 -715.155 1058.62875 -715.75 1058.4375 C-718.20692525 1057.95976454 -719.64397534 1058.24270636 -722 1059 C-722.99 1056.03 -722.99 1056.03 -724 1053 C-724 1053.99 -724 1054.98 -724 1056 C-724.99 1055.67 -725.98 1055.34 -727 1055 C-727 1054.34 -727 1053.68 -727 1053 C-729.31 1053 -731.62 1053 -734 1053 C-734.33 1053.99 -734.66 1054.98 -735 1056 C-737.01822917 1055.90234375 -739.03645833 1055.8046875 -741.0546875 1055.70703125 C-741.69664062 1055.80371094 -742.33859375 1055.90039062 -743 1056 C-743.66 1056.99 -744.32 1057.98 -745 1059 C-744.01 1059.33 -743.02 1059.66 -742 1060 C-742 1061.65 -742 1063.3 -742 1065 C-742.99 1065 -743.98 1065 -745 1065 C-745 1065.99 -745 1066.98 -745 1068 C-746.175625 1068.12375 -746.175625 1068.12375 -747.375 1068.25 C-750.14749104 1068.72806339 -750.14749104 1068.72806339 -751.3125 1071.0625 C-751.6528125 1072.0215625 -751.6528125 1072.0215625 -752 1073 C-753.32 1073 -754.64 1073 -756 1073 C-755.125 1069.125 -755.125 1069.125 -754 1068 C-754.99 1068 -755.98 1068 -757 1068 C-757 1067.34 -757 1066.68 -757 1066 C-757.99 1066.33 -758.98 1066.66 -760 1067 C-762.1875 1066.0625 -762.1875 1066.0625 -764 1065 C-767.24849977 1066.72226496 -767.24849977 1066.72226496 -768 1070 C-768.66 1070 -769.32 1070 -770 1070 C-770.33 1070.99 -770.66 1071.98 -771 1073 C-773.64 1073 -776.28 1073 -779 1073 C-779.33 1073.99 -779.66 1074.98 -780 1076 C-780.66 1076.33 -781.32 1076.66 -782 1077 C-782.33 1077.99 -782.66 1078.98 -783 1080 C-782.01 1080.66 -781.02 1081.32 -780 1082 C-780.66 1082.66 -781.32 1083.32 -782 1084 C-782.39764263 1085.98821313 -782.73775349 1087.98944339 -783 1090 C-783.66 1090 -784.32 1090 -785 1090 C-785.69159401 1091.84725052 -785.69159401 1091.84725052 -786 1094 C-785.01 1095.485 -785.01 1095.485 -784 1097 C-784.66 1097.99 -785.32 1098.98 -786 1100 C-786.99 1099.67 -787.98 1099.34 -789 1099 C-789 1098.34 -789 1097.68 -789 1097 C-789.99 1097 -790.98 1097 -792 1097 C-792 1096.34 -792 1095.68 -792 1095 C-792.66 1095 -793.32 1095 -794 1095 C-793.67 1097.31 -793.34 1099.62 -793 1102 C-793.99 1102 -794.98 1102 -796 1102 C-796.99 1100.515 -796.99 1100.515 -798 1099 C-798.33 1100.65 -798.66 1102.3 -799 1104 C-798.28972656 1103.98839844 -797.57945312 1103.97679687 -796.84765625 1103.96484375 C-795.46900391 1103.95130859 -795.46900391 1103.95130859 -794.0625 1103.9375 C-793.14597656 1103.92589844 -792.22945312 1103.91429687 -791.28515625 1103.90234375 C-789 1104 -789 1104 -788 1105 C-786.14227838 1104.91015699 -784.28752015 1104.75388139 -782.4375 1104.5625 C-781.42558594 1104.46066406 -780.41367187 1104.35882812 -779.37109375 1104.25390625 C-778.19740234 1104.12822266 -778.19740234 1104.12822266 -777 1104 C-777 1103.34 -777 1102.68 -777 1102 C-774.69 1102 -772.38 1102 -770 1102 C-770 1102.99 -770 1103.98 -770 1105 C-767.69 1105 -765.38 1105 -763 1105 C-763 1105.66 -763 1106.32 -763 1107 C-760.03 1107 -757.06 1107 -754 1107 C-754 1107.66 -754 1108.32 -754 1109 C-755.98 1109.66 -757.96 1110.32 -760 1111 C-759.34 1111.33 -758.68 1111.66 -758 1112 C-758 1111.34 -758 1110.68 -758 1110 C-748.32937575 1108.02987283 -738.66031651 1106.07235233 -728.9375 1104.375 C-728.23085205 1104.25133057 -727.5242041 1104.12766113 -726.79614258 1104.00024414 C-723.94538882 1103.50394816 -721.09374091 1103.0153804 -718.23828125 1102.546875 C-710.94437205 1101.31023105 -703.78576875 1099.55217973 -696.61035156 1097.76416016 C-692.66814813 1096.79732926 -688.79685031 1095.90926157 -684.76171875 1095.44140625 C-681.23586796 1095.02767713 -677.94217172 1094.3520227 -674.5 1093.5 C-664.26545641 1091.0911809 -652.74054581 1088.58484326 -642.8125 1093.0625 C-635.45200715 1096.37824917 -629.50459171 1094.3287919 -622.21875 1091.69921875 C-618.83582959 1090.63312235 -615.52578105 1090.32052555 -612 1090 C-611.67 1089.01 -611.34 1088.02 -611 1087 C-607.85484592 1085.58901609 -604.54310313 1085.99960382 -601.16088867 1086.11547852 C-592.87793128 1086.38378558 -586.65149556 1085.38405399 -579 1082 C-576.45447392 1081.23964805 -574.69683669 1081 -572 1081 C-572 1081.66 -572 1082.32 -572 1083 C-568.37 1082.34 -564.74 1081.68 -561 1081 C-561 1080.01 -561 1079.02 -561 1078 C-564.96 1078.33 -568.92 1078.66 -573 1079 C-571.61087891 1076.22175781 -569.72686529 1076.04509514 -566.90663147 1075.09628296 C-565.84103249 1074.75084946 -565.84103249 1074.75084946 -564.75390625 1074.3984375 C-564.02759506 1074.1571109 -563.30128387 1073.9157843 -562.55296326 1073.66714478 C-561.01490586 1073.15771042 -559.47564474 1072.6518983 -557.93530273 1072.14941406 C-555.57326495 1071.37851337 -553.21513466 1070.59651645 -550.85742188 1069.8125 C-549.36480015 1069.31965538 -547.87196834 1068.82744646 -546.37890625 1068.3359375 C-545.67053116 1068.10160004 -544.96215607 1067.86726257 -544.23231506 1067.62582397 C-539.23325292 1066 -539.23325292 1066 -537 1066 C-536.67 1066.66 -536.34 1067.32 -536 1068 C-533.31056352 1067.74285478 -530.62432453 1067.4697388 -527.9375 1067.1875 C-526.80924805 1067.08211914 -526.80924805 1067.08211914 -525.65820312 1066.97460938 C-520.58854677 1066.42594527 -516.51434963 1065.42448166 -512 1063 C-511.67 1062.01 -511.34 1061.02 -511 1060 C-508.00059058 1058.82166058 -505.09066976 1057.89487505 -502 1057 C-500.64548555 1056.59099375 -499.29134641 1056.18074336 -497.9375 1055.76953125 C-491.39115485 1053.79564163 -484.86793694 1051.84367844 -478.16796875 1050.45703125 C-465.18948794 1047.86347671 -465.18948794 1047.86347671 -453 1042.91015625 C-451 1042 -451 1042 -447 1042 C-447 1041.34 -447 1040.68 -447 1040 C-442.71 1037.69 -438.42 1035.38 -434 1033 C-434 1032.01 -434 1031.02 -434 1030 C-432.83597656 1029.58041016 -432.83597656 1029.58041016 -431.6484375 1029.15234375 C-423.08726407 1025.97510635 -415.10746273 1022.18769801 -407 1018 C-405.00137551 1016.99725369 -403.00180831 1015.99637518 -401 1015 C-404.3 1015.33 -407.6 1015.66 -411 1016 C-410.67 1014.68 -410.34 1013.36 -410 1012 C-408.35 1011.67 -406.7 1011.34 -405 1011 C-405 1011.66 -405 1012.32 -405 1013 C-403.97261719 1012.48050781 -402.94523437 1011.96101562 -401.88671875 1011.42578125 C-397.60063251 1009.26459432 -393.30202816 1007.1292355 -389 1005 C-387.33130859 1004.16855469 -387.33130859 1004.16855469 -385.62890625 1003.3203125 C-384.67886719 1002.86398437 -383.72882812 1002.40765625 -382.75 1001.9375 C-381.91984375 1001.53402344 -381.0896875 1001.13054688 -380.234375 1000.71484375 C-377.70266107 999.90487233 -376.46477614 1000.10114815 -374 1001 C-374 1001.99 -374 1002.98 -374 1004 C-370.44219804 1003.39009109 -367.3171411 1002.4216319 -364 1001 C-364 1000.34 -364 999.68 -364 999 C-360.28026121 996.15549386 -357.62609198 995.6772494 -353 996 C-353 996.99 -353 997.98 -353 999 C-351.59793253 998.45322423 -350.20358774 997.88663573 -348.8125 997.3125 C-348.03519531 996.99925781 -347.25789062 996.68601562 -346.45703125 996.36328125 C-343.84586907 995.09284995 -343.84586907 995.09284995 -341.88671875 992.61328125 C-337.76627512 988.88313674 -333.21858869 987.60314521 -328 985.875 C-326.04002317 985.21055759 -324.08162698 984.54143058 -322.125 983.8671875 C-321.26132812 983.57956543 -320.39765625 983.29194336 -319.5078125 982.99560547 C-316.80573184 981.92287524 -314.48787095 980.49324966 -312 979 C-311.34 979 -310.68 979 -310 979 C-310 978.34 -310 977.68 -310 977 C-308.390625 975.88671875 -308.390625 975.88671875 -306.25 974.6875 C-302.67384023 972.56455003 -300.49526721 970.35901355 -298 967 C-297.34 967 -296.68 967 -296 967 C-296 966.34 -296 965.68 -296 965 C-292.7 963.35 -289.4 961.7 -286 960 C-286 960.99 -286 961.98 -286 963 C-287.75 964.60546875 -287.75 964.60546875 -290 966.1875 C-290.7425 966.71730469 -291.485 967.24710938 -292.25 967.79296875 C-292.8275 968.19128906 -293.405 968.58960938 -294 969 C-293.67 970.32 -293.34 971.64 -293 973 C-292.484375 972.29875 -291.96875 971.5975 -291.4375 970.875 C-288.99631786 967.99565696 -286.46054656 965.82496212 -283.48828125 963.52734375 C-281.84109396 962.10135176 -281.84109396 962.10135176 -281.5390625 960 C-280.78646055 957.20773768 -279.47398676 956.59245909 -277.0625 955.0625 C-276.24910156 954.54558594 -275.43570313 954.02867187 -274.59765625 953.49609375 C-272.11073696 952.06377783 -269.60126735 950.83403975 -267 949.625 C-262.39727796 947.40177161 -258.9976059 944.59266109 -255.28515625 941.109375 C-252.9196212 938.92580418 -250.4659195 936.92935414 -247.9375 934.9375 C-243.49754375 931.42861439 -239.21870646 927.77091081 -235 924 C-237.54056427 925.19492641 -239.32976716 926.28030209 -241.5 928.125 C-244 930 -244 930 -248 930 C-246.32665098 926.37441045 -244.5422062 923.09187241 -242 920 C-239.67504723 919.61250787 -237.3400417 919.28241883 -235 919 C-231.800674 916.80618008 -231.800674 916.80618008 -229 914 C-228.071875 913.13375 -227.14375 912.2675 -226.1875 911.375 C-223.81311678 909.12286727 -223.81311678 909.12286727 -223 906 C-223.66 906 -224.32 906 -225 906 C-225 905.34 -225 904.68 -225 904 C-224.34 904 -223.68 904 -223 904 C-223 903.34 -223 902.68 -223 902 C-221.68 901.67 -220.36 901.34 -219 901 C-219 900.34 -219 899.68 -219 899 C-217.40665761 897.56450274 -215.74748918 896.20172673 -214.0625 894.875 C-212.55623047 893.66263672 -212.55623047 893.66263672 -211.01953125 892.42578125 C-209.52486328 891.22501953 -209.52486328 891.22501953 -208 890 C-202.14958272 885.25170215 -197.72532017 880.53970624 -193.55078125 874.25390625 C-191.64520932 871.48434705 -189.46678889 869.2770359 -187 867 C-185.93648966 865.89680644 -184.87401993 864.79260891 -183.8125 863.6875 C-181 861 -181 861 -179 861 C-178.87625 860.38125 -178.7525 859.7625 -178.625 859.125 C-178 857 -178 857 -176 855 C-173.875 855.375 -173.875 855.375 -172 856 C-181.93055556 869.53241689 -181.93055556 869.53241689 -188.40625 874.53515625 C-190.20928311 876.1923558 -191.03881747 877.76525062 -192 880 C-188.118493 876.83142286 -184.72436059 873.7653999 -181.5625 869.875 C-179.22857393 867.10867245 -177.38744436 865.484693 -174.0625 864.0625 C-169.47829722 862.09404155 -167.01917761 858.80694454 -163.87109375 855.0390625 C-161.53772858 852.49623031 -159.13132504 851.39910268 -156 850 C-153.51648473 848.15948512 -151.26738064 846.09781158 -149 844 C-148.12601563 843.24009766 -148.12601563 843.24009766 -147.234375 842.46484375 C-135.43101802 831.5789746 -126.09235411 816.30069614 -118.125 802.4375 C-117.52945313 801.40496094 -116.93390625 800.37242187 -116.3203125 799.30859375 C-115.88460937 798.54675781 -115.44890625 797.78492188 -115 797 C-114.01 797.33 -113.02 797.66 -112 798 C-108.49797128 791.7778928 -108.49797128 791.7778928 -106.5625 785 C-105.65048276 780.13590804 -102.9411151 775.94749136 -100 772 C-99.34 772 -98.68 772 -98 772 C-96.61761713 770.48482119 -96.61761713 770.48482119 -95.25 768.5 C-92 764 -92 764 -90.6237793 762.21923828 C-87.08974537 757.62831278 -84.07865156 752.96167443 -81.3125 747.875 C-80.68782837 746.74058472 -80.68782837 746.74058472 -80.05053711 745.58325195 C-76.06474927 738.26895051 -72.34157512 730.82381274 -68.66723633 723.34912109 C-65.25861224 716.42340237 -65.25861224 716.42340237 -63.3203125 713.25 C-61.72341139 710.52865373 -60.78476361 707.81124408 -59.8125 704.8125 C-59.46832031 703.76707031 -59.12414062 702.72164062 -58.76953125 701.64453125 C-57.90686638 699.13897837 -57.90686638 699.13897837 -58 697 C-58.99 698.98 -59.98 700.96 -61 703 C-61.99 703 -62.98 703 -64 703 C-63.29447273 699.35913088 -61.74074196 696.41583143 -60.0625 693.125 C-57.28474906 687.23459199 -56.31941794 682.1248279 -55.62109375 675.703125 C-54.8961089 671.38057381 -53.61812308 667.52194772 -52.0625 663.4375 C-51.80919922 662.77065186 -51.55589844 662.10380371 -51.29492188 661.41674805 C-49.83300906 657.72109635 -48.1488491 654.34194144 -46 651 C-46.66 651 -47.32 651 -48 651 C-47.01 647.04 -46.02 643.08 -45 639 C-45.66 639 -46.32 639 -47 639 C-45.38928136 623.71936663 -45.38928136 623.71936663 -41 618 C-40.01 617.67 -39.02 617.34 -38 617 C-36.76049958 614.90861544 -36.76049958 614.90861544 -35.8125 612.4375 C-35.46832031 611.61121094 -35.12414062 610.78492188 -34.76953125 609.93359375 C-34.51558594 609.29550781 -34.26164063 608.65742187 -34 608 C-33.01 608 -32.02 608 -31 608 C-30.74605469 607.24074219 -30.49210938 606.48148438 -30.23046875 605.69921875 C-29.88628906 604.70535156 -29.54210937 603.71148438 -29.1875 602.6875 C-28.68283203 601.20830078 -28.68283203 601.20830078 -28.16796875 599.69921875 C-27.03799712 597.08781275 -26.08332781 595.85687914 -24 594 C-22.82425289 591.90010348 -22.82425289 591.90010348 -22 590 C-22.33 590 -22.66 590 -23 590 C-23.33 588.35 -23.66 586.7 -24 585 C-24.66 585 -25.32 585 -26 585 C-26.08160748 583.10489301 -26.13946459 581.20875496 -26.1875 579.3125 C-26.22230469 578.25675781 -26.25710938 577.20101562 -26.29296875 576.11328125 C-25.96666615 572.64577232 -24.99030125 570.81567552 -23 568 C-22.01 568.33 -21.02 568.66 -20 569 C-15.43591105 560.74117238 -13.57679603 552.34807352 -13 543 C-13.66 543 -14.32 543 -15 543 C-15.29707485 536.47363684 -14.15465583 530.34662003 -13 523.9375 C-12.62034193 521.82244543 -12.24519657 519.70657486 -11.875 517.58984375 C-11.70742188 516.66034912 -11.53984375 515.73085449 -11.3671875 514.77319336 C-10.97602503 511.8189284 -10.93858709 508.97660701 -11 506 C-9.35 506 -7.7 506 -6 506 C-5.67 506.66 -5.34 507.32 -5 508 C-4.34 506.02 -3.68 504.04 -3 502 C-3.66 502 -4.32 502 -5 502 C-4.84273437 500.87722656 -4.68546875 499.75445312 -4.5234375 498.59765625 C-4.0365256 494.71004917 -3.83803088 490.85901369 -3.70922852 486.9453125 C-2.92867544 463.70519298 -2.92867544 463.70519298 2 455 C2.99 455 3.98 455 5 455 C5.12117187 454.15695312 5.24234375 453.31390625 5.3671875 452.4453125 C5.53476562 451.34960938 5.70234375 450.25390625 5.875 449.125 C6.03742187 448.03445313 6.19984375 446.94390625 6.3671875 445.8203125 C7 443 7 443 9 441 C9.28150664 436.87123589 8.77211712 433.05361489 8 429 C8.99 428.67 9.98 428.34 11 428 C11.33 429.65 11.66 431.3 12 433 C12.66 430.03 13.32 427.06 14 424 C14.66 424 15.32 424 16 424 C16.33 427.63 16.66 431.26 17 435 C19.17779782 431.73330327 19.50762687 429.7749839 20.0625 425.9375 C20.90566038 420.18867925 20.90566038 420.18867925 22 418 C22.06950541 416.45976004 22.08452357 414.91665012 22.0625 413.375 C22.04896484 412.14910156 22.04896484 412.14910156 22.03515625 410.8984375 C22.01775391 409.95871094 22.01775391 409.95871094 22 409 C21.34 409 20.68 409 20 409 C19.64516218 397.52691037 20.23176169 387.17181891 23 376 C23.66 376 24.32 376 25 376 C24.773125 375.360625 24.54625 374.72125 24.3125 374.0625 C23.99041182 370.9060358 24.25697804 370.06175799 25.40625 367.25 C27.70543018 360.65214893 27.81547307 353.8626618 28.1875 346.9375 C28.26906907 345.58131279 28.35174322 344.22519158 28.43554688 342.86914062 C28.63453952 339.5799093 28.82238812 336.29044341 29 333 C29.66 333 30.32 333 31 333 C31 332.34 31 331.68 31 331 C30.34 331 29.68 331 29 331 C28.80497718 328.08365878 28.61870672 325.16720455 28.4375 322.25 C28.38142578 321.425 28.32535156 320.6 28.26757812 319.75 C28.21923828 318.95078125 28.17089844 318.1515625 28.12109375 317.328125 C28.0739624 316.5949707 28.02683105 315.86181641 27.97827148 315.10644531 C28.00152884 312.85178848 28.18288513 311.10664669 29 309 C29.99 308.67 30.98 308.34 32 308 C32.33 296.12 32.66 284.24 33 272 C32.01 272 31.02 272 30 272 C30 274.64 30 277.28 30 280 C29.34 280 28.68 280 28 280 C27.02478712 277.07436137 26.82125284 274.97842241 26.71875 271.921875 C26.68136719 270.92542969 26.64398437 269.92898438 26.60546875 268.90234375 C26.57066406 267.86207031 26.53585937 266.82179688 26.5 265.75 C26.2850475 259.42084303 25.97272756 253.25788062 25 247 C25 243.99711664 25.10725072 241.1084885 25.32421875 238.12109375 C25.38287109 237.20005859 25.44152344 236.27902344 25.50195312 235.33007812 C25.62595077 233.3970201 25.76142759 231.46466519 25.90820312 229.53320312 C25.96298828 228.61345703 26.01777344 227.69371094 26.07421875 226.74609375 C26.13182373 225.90747803 26.18942871 225.0688623 26.2487793 224.20483398 C25.93777209 221.44849828 24.99511415 220.82649482 23 219 C22.70703125 216.08203125 22.70703125 216.08203125 22.8125 212.8125 C22.83957031 211.72582031 22.86664062 210.63914063 22.89453125 209.51953125 C22.94673828 208.27236328 22.94673828 208.27236328 23 207 C22.01 206.67 21.02 206.34 20 206 C20.13277344 205.33355469 20.26554688 204.66710937 20.40234375 203.98046875 C21.67620211 197.33222984 22.50389139 190.74968813 23 184 C23.66 184 24.32 184 25 184 C25.66 187.63 26.32 191.26 27 195 C27.22328552 191.97961078 27.42901467 188.95968289 27.625 185.9375 C27.72167969 184.66616211 27.72167969 184.66616211 27.8203125 183.36914062 C28.14734336 178.07532855 27.87590386 173.98286962 26 169 C24.4587688 167.29078411 24.4587688 167.29078411 23 166 C23 165.01 23 164.02 23 163 C23.66 163 24.32 163 25 163 C24.67 161.68 24.34 160.36 24 159 C23.34 159 22.68 159 22 159 C22.165 157.700625 22.33 156.40125 22.5 155.0625 C22.99598046 150.05956668 23.14485167 145.08594007 23.1875 140.0625 C23.20039062 139.31685791 23.21328125 138.57121582 23.2265625 137.80297852 C23.23351191 133.99079304 23.16571588 132.24857382 21 129 C20.34515625 128.86335937 19.6903125 128.72671875 19.015625 128.5859375 C17 128 17 128 15.734375 126.1015625 C13.13514663 119.56223397 12.52035636 114.00812647 13 107 C13.99 107.33 14.98 107.66 16 108 C16 104.19517747 14.84195606 101.16036696 13.65625 97.5703125 C12.98452995 94.93940897 12.88375344 92.70273252 13 90 C13.66 90 14.32 90 15 90 C15.99 92.31 16.98 94.62 18 97 C17.35705622 89.63201212 15.76330277 82.93272177 13.72851562 75.84179688 C12.50678837 71.4357426 11.70866285 67.62404344 12 63 C14.72426311 65.35277269 15.8141763 67.62496331 17 71 C18.62222158 69.74300723 18.62222158 69.74300723 20 68 C19.58436416 65.99109342 19.14531686 63.98516769 18.61328125 62.00390625 C17.67475741 57.40693279 17.544626 52.7957249 17.34277344 48.11669922 C17.15599233 44.00468483 16.77068492 40.04450351 16 36 C15.01 36 14.02 36 13 36 C12.80664062 34.96359375 12.61328125 33.9271875 12.4140625 32.859375 C12.15135133 31.48952391 11.88831329 30.11973548 11.625 28.75 C11.43550781 27.72712891 11.43550781 27.72712891 11.2421875 26.68359375 C10.56093633 23.17515024 9.83146585 20.08960327 8 17 C7.34 18.32 6.68 19.64 6 21 C4.68 21 3.36 21 2 21 C1.34 19.02 0.68 17.04 0 15 C0.99 15 1.98 15 3 15 C2.44768767 10.82706556 2.44768767 10.82706556 0.9375 6.9375 C-0.23202603 4.52047954 -0.14727119 2.65088143 0 0 Z M18 73 C19 75 19 75 19 75 Z M21 74 C22 76 22 76 22 76 Z M22 76 C23 78 23 78 23 78 Z M18 112 C19 114 19 114 19 114 Z M25 198 C24.64517789 205.21471629 25.8408662 211.12418702 28 218 C28.33 218 28.66 218 29 218 C28.56367091 211.11059329 27.91610155 204.64248536 26 198 C25.67 198 25.34 198 25 198 Z M29 248 C29 250.97 29 253.94 29 257 C29.99 257 30.98 257 32 257 C31.67 254.03 31.34 251.06 31 248 C30.34 248 29.68 248 29 248 Z M29 261 C29 263.64 29 266.28 29 269 C29.66 269 30.32 269 31 269 C30.67 266.36 30.34 263.72 30 261 C29.67 261 29.34 261 29 261 Z M25 376 C26 378 26 378 26 378 Z M4 456 C5 458 5 458 5 458 Z M-1 494 C0 497 0 497 0 497 Z M-7 513 C-10.00559652 518.00932754 -10.29341888 521.32723489 -10 527 C-7.44196816 523.16295224 -5.65494276 519.24287209 -6.375 514.5625 C-6.58125 514.046875 -6.7875 513.53125 -7 513 Z M-33 613 C-32 616 -32 616 -32 616 Z M-31 620 C-30 623 -30 623 -30 623 Z M-32 623 C-32.53093324 624.93475671 -33.04942317 626.87293155 -33.5625 628.8125 C-33.85253906 629.89144531 -34.14257812 630.97039063 -34.44140625 632.08203125 C-35.25567738 635.04789759 -35.25567738 635.04789759 -34 638 C-32.38275389 636.88710102 -32.38275389 636.88710102 -31 635 C-30.63680691 632.02807238 -30.63680691 632.02807238 -30.8125 628.8125 C-30.83957031 627.72582031 -30.86664062 626.63914062 -30.89453125 625.51953125 C-30.92933594 624.68808594 -30.96414063 623.85664062 -31 623 C-31.33 623 -31.66 623 -32 623 Z M-44 636 C-43 638 -43 638 -43 638 Z M-41 639 C-41.6708712 640.6232687 -42.33657029 642.24867578 -43 643.875 C-43.37125 644.77992188 -43.7425 645.68484375 -44.125 646.6171875 C-45.11490226 648.88983858 -45.11490226 648.88983858 -45 651 C-44.01 651.495 -44.01 651.495 -43 652 C-42.375 654.0625 -42.375 654.0625 -42 656 C-41.01 655.67 -40.02 655.34 -39 655 C-38.14701624 651.32612505 -37.89210529 647.9552607 -37.9375 644.1875 C-37.94652344 643.21167969 -37.95554687 642.23585938 -37.96484375 641.23046875 C-37.97644531 640.49441406 -37.98804688 639.75835938 -38 639 C-38.99 639 -39.98 639 -41 639 Z M-46 662 C-45 664 -45 664 -45 664 Z M-47 664 C-49.31 670.6 -51.62 677.2 -54 684 C-53.34 684.33 -52.68 684.66 -52 685 C-50.98968935 682.44114774 -49.99159855 679.87859624 -49 677.3125 C-48.71382812 676.59126953 -48.42765625 675.87003906 -48.1328125 675.12695312 C-46.6609498 671.28959679 -45.60385002 668.18433411 -46 664 C-46.33 664 -46.66 664 -47 664 Z M-57 694 C-56 696 -56 696 -56 696 Z M-647 999 C-647 999.66 -647 1000.32 -647 1001 C-646.34 1000.67 -645.68 1000.34 -645 1000 C-645.66 999.67 -646.32 999.34 -647 999 Z M-383.625 1007.5 C-385.40777344 1008.19609375 -385.40777344 1008.19609375 -387.2265625 1008.90625 C-388.14179688 1009.2671875 -389.05703125 1009.628125 -390 1010 C-390 1010.33 -390 1010.66 -390 1011 C-383.27141839 1010.3682865 -383.27141839 1010.3682865 -377 1008 C-376.34 1007.01 -375.68 1006.02 -375 1005 C-378.14029447 1005 -380.71830469 1006.36011949 -383.625 1007.5 Z M-674 1015 C-674.33 1015.66 -674.66 1016.32 -675 1017 C-674.34 1017 -673.68 1017 -673 1017 C-673.33 1016.34 -673.66 1015.68 -674 1015 Z M-665 1016 C-664 1018 -664 1018 -664 1018 Z M-666 1018 C-665 1021 -665 1021 -665 1021 Z M-739 1051 C-738 1053 -738 1053 -738 1053 Z M-786 1083 C-785 1085 -785 1085 -785 1085 Z M-788 1089 C-787 1091 -787 1091 -787 1091 Z M-822 1099 C-821.67 1100.65 -821.34 1102.3 -821 1104 C-824.56327058 1104.08098342 -827.56050142 1103.85987464 -831 1103 C-831.99 1103.495 -831.99 1103.495 -833 1104 C-833 1104.99 -833 1105.98 -833 1107 C-836 1106 -836 1106 -838 1104 C-838.99 1104.99 -839.98 1105.98 -841 1107 C-838.03 1107.33 -835.06 1107.66 -832 1108 C-832 1107.34 -832 1106.68 -832 1106 C-827.71 1106 -823.42 1106 -819 1106 C-819 1103.69 -819 1101.38 -819 1099 C-819.99 1099 -820.98 1099 -822 1099 Z M-824 1109 C-824 1109.99 -824 1110.98 -824 1112 C-818.06 1112.33 -812.12 1112.66 -806 1113 C-806 1112.34 -806 1111.68 -806 1111 C-805.01 1110.67 -804.02 1110.34 -803 1110 C-805.77723925 1109.21311555 -808.22610077 1108.88050076 -811.109375 1108.90234375 C-812.24052734 1108.90717773 -812.24052734 1108.90717773 -813.39453125 1108.91210938 C-814.17183594 1108.92048828 -814.94914063 1108.92886719 -815.75 1108.9375 C-816.54277344 1108.94201172 -817.33554687 1108.94652344 -818.15234375 1108.95117188 C-820.10159508 1108.96291435 -822.05080738 1108.98084854 -824 1109 Z M-758 1112 C-758 1112.99 -758 1113.98 -758 1115 C-752.72 1114.34 -747.44 1113.68 -742 1113 C-742 1112.67 -742 1112.34 -742 1112 C-747.28 1112 -752.56 1112 -758 1112 Z M-700 1124 C-699 1126 -699 1126 -699 1126 Z M-798 1128 C-794 1129 -794 1129 -794 1129 Z M-754.3125 1136.4375 C-754.869375 1136.953125 -755.42625 1137.46875 -756 1138 C-753.09399739 1139.25664978 -751.20395416 1140 -748 1140 C-747.67 1138.68 -747.34 1137.36 -747 1136 C-750.79735079 1134.82620426 -750.79735079 1134.82620426 -754.3125 1136.4375 Z M-735 1143 C-735.33 1143.66 -735.66 1144.32 -736 1145 C-734.10820797 1145.6814823 -734.10820797 1145.6814823 -732 1146 C-731.34 1145.34 -730.68 1144.68 -730 1144 C-731.65 1143.67 -733.3 1143.34 -735 1143 Z M-657 1151 C-653.00889681 1152.9955516 -651.30013434 1153.19546065 -647 1153 C-647 1152.67 -647 1152.34 -647 1152 C-650.3 1151.67 -653.6 1151.34 -657 1151 Z M-615 1153 C-611.77208445 1155.1519437 -610.71599191 1155.20086443 -607 1155 C-610.22791555 1152.8480563 -611.28400809 1152.79913557 -615 1153 Z M-548 1154 C-547.67 1154.66 -547.34 1155.32 -547 1156 C-545.68 1155.34 -544.36 1154.68 -543 1154 C-544.65 1154 -546.3 1154 -548 1154 Z M-543 1155 C-539 1156 -539 1156 -539 1156 Z M-640 1159 C-640 1159.33 -640 1159.66 -640 1160 C-635.71 1160 -631.42 1160 -627 1160 C-627 1159.67 -627 1159.34 -627 1159 C-631.29 1159 -635.58 1159 -640 1159 Z " fill="#96875c" transform="translate(898,1)"/>
</svg>
