<?xml version="1.0" encoding="UTF-8"?>
<svg version="1.1" xmlns="http://www.w3.org/2000/svg" width="512" height="512">
<path d="M0 0 C3.43923975 2.69644537 6.52457591 5.24488305 9.2421875 8.68359375 C13.39531324 11.99579734 16.76327244 11.33290553 21.890625 11.0078125 C40.74325291 10.4304416 56.99821276 16.00894643 71.078125 28.9453125 C81.88633581 39.43967327 90.29015351 54.01198548 91.22338867 69.32958984 C91.24805747 71.9932897 91.26377512 74.65649018 91.265625 77.3203125 C91.27787109 78.24070312 91.29011719 79.16109375 91.30273438 80.109375 C91.3141986 85.45934796 90.84094986 89.88677158 89.078125 94.9453125 C89.94566406 95.18894531 90.81320312 95.43257813 91.70703125 95.68359375 C106.99226392 101.40448616 117.37685115 116.06491116 124.65625 129.95703125 C130.60617728 143.09346709 131.64558174 157.23616697 131.515625 171.4453125 C131.51191895 172.18031982 131.50821289 172.91532715 131.50439453 173.67260742 C131.24961871 209.45316906 119.58322094 242.53776833 103.078125 273.9453125 C102.68818359 274.6986084 102.29824219 275.4519043 101.89648438 276.22802734 C92.35310472 294.58212562 80.77931113 311.63165133 68.078125 327.9453125 C67.23419533 329.04543511 66.39045509 330.14570306 65.546875 331.24609375 C55.81384413 343.86364104 45.29006725 355.77823373 34.45507812 367.45507812 C33.03520373 368.99176488 31.62604258 370.53772524 30.21875 372.0859375 C21.03662439 382.16168205 11.67442503 392.23685209 1.25390625 401.05078125 C-1.18784149 403.17689912 -3.5425127 405.38264866 -5.90185547 407.59936523 C-11.44236375 412.80254174 -17.03904949 417.84189735 -22.98046875 422.58984375 C-25.16145291 424.33636892 -27.31494439 426.10154217 -29.45703125 427.89453125 C-69.96894528 461.63637162 -118.37014787 489.43131412 -170.921875 497.9453125 C-172.00484863 498.1211084 -173.08782227 498.2969043 -174.20361328 498.47802734 C-178.05003686 498.96141899 -181.82949442 499.12422608 -185.69921875 499.1484375 C-186.42822891 499.15413757 -187.15723907 499.15983765 -187.90834045 499.16571045 C-189.44709856 499.17510669 -190.98587629 499.18167288 -192.5246582 499.18554688 C-194.8221595 499.19515684 -197.11872717 499.22619051 -199.41601562 499.2578125 C-221.23797043 499.41658699 -240.09236097 494.31133834 -256.921875 479.9453125 C-257.56253906 479.41679687 -258.20320313 478.88828125 -258.86328125 478.34375 C-265.13104435 472.67222422 -269.40241986 465.01093955 -273.921875 457.9453125 C-275.01169678 458.18544067 -275.01169678 458.18544067 -276.12353516 458.43041992 C-294.28833671 461.77273073 -312.95230621 458.41512737 -328.26074219 448.12548828 C-343.76583193 437.10967349 -352.29123246 422.53957834 -356.5703125 404.16015625 C-356.87834739 401.34334834 -356.89268709 398.83202434 -356.7734375 396.01171875 C-356.73863281 395.11517578 -356.70382812 394.21863281 -356.66796875 393.29492188 C-356.58735832 391.43958183 -356.48324045 389.58511157 -356.35546875 387.73242188 C-356.17326924 382.49539507 -356.17326924 382.49539507 -358.3815918 377.89086914 C-360.15927398 376.14053229 -362.00837509 374.5442102 -363.921875 372.9453125 C-378.6797282 354.90793636 -382.75867752 334.6862943 -380.921875 311.9453125 C-378.2441079 291.07719648 -365.3545116 274.1293183 -349.14306641 261.56689453 C-345.78950827 259.01484787 -342.40736992 256.50236238 -339.01953125 253.99609375 C-326.21095623 244.50502109 -313.89858952 234.35852204 -301.75976562 224.03125 C-298.33146755 221.11943337 -294.86213185 218.26767773 -291.359375 215.4453125 C-286.28436029 211.31723931 -281.48172084 206.94185659 -276.6875 202.49609375 C-274.48131553 200.46129367 -272.25555239 198.46885012 -269.984375 196.5078125 C-265.42986377 192.5530723 -261.01000611 188.45402032 -256.59204102 184.34838867 C-254.33782886 182.25506381 -252.07692788 180.16964156 -249.80688477 178.09350586 C-238.59560802 167.79079671 -227.84674955 157.02406288 -217.09423828 146.24804688 C-214.43419614 143.58225662 -211.76961554 140.92105468 -209.10372925 138.26111031 C-207.01880984 136.17982533 -204.93630331 134.09613909 -202.85449219 132.01174545 C-201.87297561 131.02957025 -200.89073931 130.04811366 -199.90771484 129.06744766 C-194.35876057 123.52891507 -189.0259649 117.89472353 -183.921875 111.9453125 C-182.69232867 110.60271783 -181.45531035 109.26681788 -180.203125 107.9453125 C-179.26919922 106.9553125 -179.26919922 106.9553125 -178.31640625 105.9453125 C-177.05338542 104.61197917 -175.79036458 103.27864583 -174.52734375 101.9453125 C-170.21292692 97.37185201 -166.02849523 92.70603093 -161.921875 87.9453125 C-161.42816406 87.37377441 -160.93445313 86.80223633 -160.42578125 86.21337891 C-157.4267229 82.73262248 -154.44309406 79.23861877 -151.45947266 75.74462891 C-150.46808114 74.5844899 -149.47564596 73.42524155 -148.48193359 72.26708984 C-142.89667047 65.7571532 -137.45935471 59.16102908 -132.19165039 52.39111328 C-128.62477694 47.81334155 -124.97294493 43.31067807 -121.296875 38.8203125 C-116.70685946 33.20521813 -112.29112444 27.50179038 -107.9609375 21.68359375 C-82.32291838 -12.74600664 -37.32812307 -26.24945552 0 0 Z M-76.921875 14.9453125 C-77.68371094 15.50089844 -78.44554687 16.05648438 -79.23046875 16.62890625 C-86.88589284 22.87643625 -92.31609331 30.88245733 -98.11328125 38.80078125 C-102.0027503 44.10120365 -106.10344132 49.19879773 -110.27954102 54.27416992 C-113.81338359 58.57146666 -117.26227809 62.92397897 -120.671875 67.3203125 C-124.50603366 72.24788591 -128.52039526 76.93027335 -132.75 81.52734375 C-135.02417538 84.05920447 -137.16364024 86.66889838 -139.296875 89.3203125 C-143.4610031 94.46723307 -147.8727129 99.32805956 -152.37109375 104.1796875 C-154.40589383 106.38587197 -156.39833738 108.61163511 -158.359375 110.8828125 C-162.31351002 115.43662676 -166.41192811 119.85582382 -170.5168457 124.27319336 C-172.6164111 126.53414868 -174.70827065 128.80165437 -176.79125977 131.07788086 C-186.95467166 142.13278344 -197.56377646 152.7413093 -208.19189453 163.34570312 C-210.79715142 165.94521071 -213.39781766 168.54925794 -215.99722862 171.15460968 C-218.03219014 173.19320635 -220.06955366 175.22938914 -222.10762405 177.26487732 C-223.52681657 178.6830964 -224.94402789 180.10329717 -226.36117554 181.52355957 C-230.86334731 186.00951542 -235.41905012 190.35945404 -240.24111938 194.50036621 C-242.26282467 196.23842707 -244.20891156 198.04557412 -246.140625 199.8828125 C-246.84574219 200.55054688 -247.55085938 201.21828125 -248.27734375 201.90625 C-248.98503906 202.57914063 -249.69273437 203.25203125 -250.421875 203.9453125 C-255.81668889 209.07480767 -261.28034229 214.08789174 -266.921875 218.9453125 C-267.48745117 219.43306152 -268.05302734 219.92081055 -268.63574219 220.42333984 C-270.27034738 221.82937323 -271.9079838 223.23177808 -273.546875 224.6328125 C-274.76308344 225.67310389 -275.97922736 226.71347073 -277.1953125 227.75390625 C-277.80987305 228.27968262 -278.42443359 228.80545898 -279.05761719 229.34716797 C-280.9035678 230.92961856 -282.7453591 232.51677454 -284.5859375 234.10546875 C-291.25884673 239.85997162 -297.9882266 245.50490464 -304.921875 250.9453125 C-305.9428125 251.75097656 -306.96375 252.55664062 -308.015625 253.38671875 C-316.18039554 259.82393679 -324.38735264 266.20696293 -332.59765625 272.5859375 C-333.30253174 273.13467529 -334.00740723 273.68341309 -334.73364258 274.2487793 C-336.25773622 275.43040673 -337.78659852 276.60589822 -339.3190918 277.77661133 C-348.95900395 285.17165301 -355.12672707 292.68194323 -359.921875 303.9453125 C-360.26347656 304.71101563 -360.60507812 305.47671875 -360.95703125 306.265625 C-365.58702471 318.62663079 -364.14050801 335.09723494 -358.921875 346.9453125 C-356.24132357 351.82691753 -353.14700848 356.41082996 -349.921875 360.9453125 C-349.33664062 360.20410156 -348.75140625 359.46289062 -348.1484375 358.69921875 C-346.83018136 357.06874405 -345.48131353 355.46106666 -344.0703125 353.91015625 C-339.48654484 348.6701223 -338.32078723 344.75619225 -337.48046875 337.9296875 C-335.45188252 327.09164637 -326.46534554 319.86893775 -317.9140625 313.81640625 C-308.85811131 307.953401 -299.16659764 303.60949956 -288.765625 300.78125 C-277.34330713 297.65417175 -270.01950461 292.58850547 -262.921875 282.9453125 C-261.82087913 280.65615647 -261.82087913 280.65615647 -261.046875 278.1953125 C-260.551875 276.76445313 -260.551875 276.76445313 -260.046875 275.3046875 C-259.44979109 273.52172859 -258.85293422 271.73869294 -258.2578125 269.95507812 C-249.41034079 243.5828067 -235.2764885 224.76841919 -210.28515625 211.55078125 C-203.90260677 208.47190976 -197.24091017 206.30052284 -190.46606445 204.26318359 C-181.23401506 201.37160913 -172.60846919 196.18665178 -167.5859375 187.68359375 C-165.22086951 182.76515617 -163.49593103 177.69890657 -161.84667969 172.50927734 C-154.07925735 148.13191678 -139.88404022 129.2502691 -116.921875 116.9453125 C-109.0071361 113.07038825 -100.90695335 110.11277451 -92.42651367 107.76879883 C-83.50142845 105.19971527 -75.28406348 98.70461968 -70.734375 90.5078125 C-69.21628095 87.14960444 -68.25809695 83.67895294 -67.27734375 80.1315918 C-62.60289071 63.25266962 -54.16347351 43.96017579 -38.921875 33.9453125 C-34.77736466 31.71365309 -31.14947325 30.81070168 -26.546875 30.1953125 C-20.23613738 29.17241821 -16.58358747 26.11446667 -11.921875 21.9453125 C-10.26119169 20.60453419 -8.59591382 19.26937805 -6.921875 17.9453125 C-28.34552265 2.91342779 -54.48727221 -1.49674197 -76.921875 14.9453125 Z M-2.921875 36.9453125 C-2.50035156 37.68136719 -2.07882812 38.41742188 -1.64453125 39.17578125 C-1.09667969 40.15160156 -0.54882812 41.12742187 0.015625 42.1328125 C0.56089844 43.09574219 1.10617187 44.05867188 1.66796875 45.05078125 C5.13780771 52.17308226 4.98435339 59.86299488 2.640625 67.3203125 C0.47117591 72.88778758 -2.9509795 76.8590746 -6.8125 81.3515625 C-11.14302133 86.67649984 -12.76656808 92.31507243 -14.56445312 98.87402344 C-18.54313934 113.2599805 -24.80824247 124.8535048 -34.921875 135.9453125 C-35.93314453 137.09580078 -35.93314453 137.09580078 -36.96484375 138.26953125 C-48.83437581 151.02983495 -63.79521669 158.00740884 -80.26220703 162.828125 C-87.09515843 164.83903316 -92.7685489 166.84026111 -97.921875 171.9453125 C-98.54449219 172.54214844 -99.16710937 173.13898438 -99.80859375 173.75390625 C-105.57249474 179.75948024 -107.77806974 186.32839957 -110.25 194.12890625 C-114.87918973 208.64561029 -120.58819069 220.4574296 -130.921875 231.9453125 C-131.54707031 232.65300781 -132.17226562 233.36070312 -132.81640625 234.08984375 C-144.40980069 246.46426687 -159.64117162 254.09413181 -175.796875 258.5078125 C-186.58674721 261.48101104 -194.42168496 266.6040783 -200.921875 275.9453125 C-202.6698087 279.49925078 -203.78951862 283.1557533 -204.921875 286.9453125 C-212.75262992 312.4695702 -226.31596781 332.99875619 -250.31420898 345.97485352 C-257.92027654 349.93757631 -265.59607997 352.62098226 -273.91943359 354.69165039 C-279.99398326 356.29679442 -284.14838726 358.89741693 -288.921875 362.9453125 C-296.24861164 368.87648025 -302.97042422 372.60590817 -312.6640625 372.234375 C-319.44945458 371.36565698 -325.16619979 368.49668657 -330.921875 364.9453125 C-337.91900692 377.94941616 -341.41902818 389.83139319 -337.734375 404.6328125 C-333.28423954 418.73851709 -325.15308002 429.55732013 -311.91015625 436.57421875 C-302.0526212 441.09708777 -292.60429357 441.60113985 -281.921875 440.9453125 C-281.261875 440.6153125 -280.601875 440.2853125 -279.921875 439.9453125 C-279.93758545 439.26130371 -279.9532959 438.57729492 -279.96948242 437.87255859 C-280.49657951 411.41984664 -277.07188504 390.74532308 -258.109375 370.7578125 C-253.11837131 365.97394533 -247.49027126 362.02107868 -241.921875 357.9453125 C-232.68937638 350.98310043 -223.68853993 343.75819704 -214.7421875 336.43359375 C-213.14925635 335.13121871 -211.5515798 333.83465218 -209.953125 332.5390625 C-203.71836312 327.47790286 -197.60525656 322.28580232 -191.5234375 317.04296875 C-189.17404524 315.01787131 -186.8151236 313.0050652 -184.4453125 311.00390625 C-177.49155751 305.11837515 -170.74477966 299.06006087 -164.11450195 292.81176758 C-161.01811716 289.89452931 -157.9093089 287.01954183 -154.671875 284.2578125 C-150.49191476 280.66849881 -146.67420005 276.72781406 -142.828125 272.7890625 C-140.71035329 270.66573448 -138.50093873 268.69614661 -136.22485352 266.74389648 C-132.03894178 263.09520705 -128.08729496 259.25559142 -124.16796875 255.32421875 C-123.46342056 254.62062729 -122.75887238 253.91703583 -122.03297424 253.19212341 C-120.55534133 251.71516602 -119.07895043 250.23696508 -117.60375977 248.75756836 C-115.36521019 246.51366165 -113.12137027 244.27514546 -110.87695312 242.03710938 C-109.43197096 240.59146632 -107.98729908 239.14551305 -106.54296875 237.69921875 C-105.55205482 236.71134117 -105.55205482 236.71134117 -104.54112244 235.70350647 C-100.68844072 231.83167986 -97.01920036 227.85273273 -93.46290588 223.70652771 C-91.23123147 221.155989 -88.84689793 218.81327607 -86.421875 216.4453125 C-82.71509643 212.78820074 -79.16882009 209.05566679 -75.7890625 205.09375 C-73.89374223 202.91294216 -71.94176214 200.79092699 -69.97631836 198.67333984 C-65.16107641 193.4838989 -60.59918115 188.1676514 -56.16015625 182.6484375 C-53.87371795 179.88715425 -51.48579282 177.25993028 -49.046875 174.6328125 C-44.78209502 169.99833023 -40.87466687 165.17657295 -37.0234375 160.20117188 C-34.10968299 156.44030054 -31.12167436 152.76485705 -28.046875 149.1328125 C-24.0528361 144.37920994 -20.24330879 139.51155377 -16.484375 134.5703125 C-15.93442871 133.84803467 -15.38448242 133.12575684 -14.81787109 132.3815918 C-13.71773599 130.93586197 -12.61779924 129.48998117 -11.51806641 128.04394531 C-10.72795166 127.00512207 -10.72795166 127.00512207 -9.921875 125.9453125 C-9.42478027 125.29143555 -8.92768555 124.63755859 -8.41552734 123.96386719 C4.22884493 107.3912702 16.58715328 96.0212669 37.078125 89.9453125 C37.89410156 89.69910156 38.71007812 89.45289063 39.55078125 89.19921875 C49.85432896 86.63658681 61.66600297 87.22145124 72.078125 88.9453125 C75.62511324 77.3815541 72.86966481 64.50827786 67.60546875 54.0078125 C60.3324671 41.62823522 49.8443099 33.96984427 36.140625 30.1328125 C22.00505038 26.9735206 9.58251328 29.94617481 -2.921875 36.9453125 Z M-37.0703125 56.4609375 C-44.20977628 66.04047118 -48.17240349 75.72015723 -51.48828125 87.12939453 C-54.63726416 97.90845612 -59.01808877 104.90641881 -66.921875 112.9453125 C-67.50066406 113.53699219 -68.07945312 114.12867187 -68.67578125 114.73828125 C-75.43347415 121.07260062 -84.01655113 123.73791 -92.734375 126.3203125 C-112.91212214 132.37459271 -128.84592919 144.14907413 -139.19726562 162.65332031 C-142.65380892 169.08000709 -144.92902785 175.64286348 -147.0234375 182.609375 C-151.39818904 196.87314996 -159.34583996 208.87631882 -172.5625 216.44921875 C-178.1174631 218.92311511 -183.92967601 220.56875453 -189.73803711 222.34448242 C-208.98710938 228.28595659 -225.25352585 239.94715102 -235.171875 257.8828125 C-238.70081556 264.56766657 -240.73262536 271.5561199 -242.78540039 278.80224609 C-246.7352078 292.55952487 -254.79353047 304.6588273 -267.515625 311.90625 C-272.14415484 313.90493334 -276.99491449 315.26658175 -281.8203125 316.703125 C-295.39124465 320.76237255 -312.31689041 327.2534937 -320.171875 339.96875 C-321.41675922 343.24953861 -320.80069571 345.60579382 -319.921875 348.9453125 C-317.47877096 352.15624923 -315.80706169 353.64397235 -311.984375 354.9453125 C-306.38103687 354.9453125 -303.13365592 352.21387808 -299.171875 348.5703125 C-292.02110703 342.20666265 -284.23601751 339.68395047 -275.171875 337.1328125 C-261.57324756 333.25324108 -250.94073201 327.12153376 -240.921875 316.9453125 C-240.21417969 316.23632812 -239.50648438 315.52734375 -238.77734375 314.796875 C-229.09143901 304.53685354 -224.74388478 293.19404605 -220.921875 279.9453125 C-216.45403094 265.29151943 -208.01322478 254.17915636 -194.6171875 246.625 C-190.29619322 244.50913625 -185.73001189 243.29589505 -181.109375 242.0078125 C-165.97137597 237.75462762 -154.88601515 231.17524999 -143.921875 219.9453125 C-143.25671875 219.30078125 -142.5915625 218.65625 -141.90625 217.9921875 C-133.5173247 209.30095858 -129.04619302 198.19368539 -125.859375 186.7578125 C-122.0691798 173.20773711 -115.94661305 161.08058626 -103.3515625 153.7890625 C-96.04897433 149.84324314 -88.60434353 147.05501543 -80.65551758 144.73071289 C-69.9060552 141.54160389 -61.24548215 136.39275048 -52.921875 128.9453125 C-52.138125 128.2440625 -51.354375 127.5428125 -50.546875 126.8203125 C-40.06132589 116.90154983 -33.44112131 104.51966232 -30.046875 90.5703125 C-27.64904791 81.1041919 -23.75480973 72.746563 -17.046875 65.5703125 C-14.62809595 62.97135352 -13.88572547 61.83496129 -12.734375 58.3203125 C-12.97158617 54.0505115 -14.15235031 52.1639493 -16.921875 48.9453125 C-25.02767416 43.19280987 -31.95295346 50.28403716 -37.0703125 56.4609375 Z M13.51953125 124.19970703 C9.08863036 129.56572014 5.01979763 135.22293008 0.89453125 140.82421875 C-4.01872303 147.47097758 -9.2376376 153.85409555 -14.50097656 160.22460938 C-16.56785073 162.72758689 -18.61906426 165.24329692 -20.671875 167.7578125 C-21.3834375 168.62535156 -22.095 169.49289063 -22.828125 170.38671875 C-24.22906993 172.09869437 -25.62487833 173.81488565 -27.015625 175.53515625 C-35.90845747 186.50620501 -45.19451018 197.13167397 -54.734375 207.54296875 C-56.6184784 209.61211802 -58.46642247 211.70385176 -60.296875 213.8203125 C-67.24727962 221.80588376 -74.44706887 229.57672114 -82.00193787 236.99293518 C-83.80376036 238.82520214 -85.48080025 240.70989407 -87.14868164 242.66381836 C-90.920592 247.00138118 -94.91128284 251.07922716 -98.98046875 255.13671875 C-99.7284523 255.88565903 -100.47643585 256.6345993 -101.24708557 257.40623474 C-102.81819964 258.97802475 -104.39055892 260.54857099 -105.96411133 262.11791992 C-108.35287346 264.50132554 -110.73624946 266.89002318 -113.11914062 269.27929688 C-114.6559295 270.81542487 -116.1930286 272.35124259 -117.73046875 273.88671875 C-118.43280136 274.59107559 -119.13513397 275.29543243 -119.85874939 276.02113342 C-123.84458518 279.98842535 -127.92774813 283.7801883 -132.19740295 287.44102478 C-134.55582865 289.49832158 -136.73931606 291.70376549 -138.921875 293.9453125 C-142.39095631 297.45124292 -145.92466827 300.77330513 -149.671875 303.9765625 C-152.01092292 306.02322943 -154.28284023 308.12968395 -156.55395508 310.25097656 C-161.96291794 315.30238049 -167.47798335 320.10811372 -173.25390625 324.7421875 C-176.00577038 327.01459068 -178.61925643 329.39226081 -181.234375 331.8203125 C-185.84458857 336.06328289 -190.64114458 339.94407913 -195.59350586 343.77124023 C-199.59226582 346.87040144 -203.46646861 350.07869435 -207.296875 353.3828125 C-213.29264586 358.53242456 -219.57144371 363.24615843 -225.9140625 367.95703125 C-243.84867232 381.28845353 -259.12914571 393.54488842 -262.921875 416.9453125 C-264.33883691 433.05307485 -260.57673189 446.77670855 -250.81640625 459.7421875 C-240.27420872 472.05696692 -226.94868258 478.9408769 -210.921875 480.9453125 C-205.98107769 481.26304302 -201.05956035 481.32705955 -196.109375 481.3203125 C-195.4316806 481.31976868 -194.75398621 481.31922485 -194.05575562 481.31866455 C-181.68133947 481.27328449 -169.93425957 479.98416677 -157.921875 476.9453125 C-157.10283691 476.74164063 -156.28379883 476.53796875 -155.43994141 476.328125 C-113.59221363 465.59496545 -76.21514701 441.81700294 -42.921875 414.9453125 C-41.45621094 413.77162109 -41.45621094 413.77162109 -39.9609375 412.57421875 C-34.66444019 408.29399613 -29.52997136 403.87600654 -24.50390625 399.28125 C-22.40120453 397.37895707 -20.27737602 395.51133559 -18.13671875 393.65234375 C-13.89284924 389.94658321 -9.76897811 386.1246135 -5.671875 382.2578125 C-4.93533691 381.56300781 -4.19879883 380.86820312 -3.43994141 380.15234375 C8.77238185 368.59267994 8.77238185 368.59267994 20.11328125 356.19140625 C22.26807408 353.72817389 24.4962381 351.34570836 26.73681641 348.96069336 C32.80532532 342.4976882 38.55576056 335.88583515 44.078125 328.9453125 C45.00919297 327.80498935 45.94155887 326.66572511 46.875 325.52734375 C74.58563388 291.57807134 98.13712844 252.65627449 109.078125 209.9453125 C109.30258301 209.07148926 109.52704102 208.19766602 109.75830078 207.29736328 C112.62937884 195.57287643 113.45516516 183.9737518 113.515625 171.9453125 C113.52585693 170.66978516 113.53608887 169.39425781 113.54663086 168.08007812 C113.37534112 149.63349121 108.80331869 133.81681357 95.75390625 120.3515625 C83.46433104 109.29991531 69.39569775 104.35857703 53.05078125 104.63671875 C37.39956483 105.85249662 23.84885432 112.35567353 13.51953125 124.19970703 Z " transform="translate(380.921875,13.0546875)"/>
</svg>
